<svg width="20" height="22" viewBox="0 0 20 22" fill="none" xmlns="http://www.w3.org/2000/svg">
<path d="M5 13C5 12.4477 5.44772 12 6 12C6.55229 12 7 12.4477 7 13C7 13.5523 6.55229 14 6 14C5.44772 14 5 13.5523 5 13Z" fill="#C1C1C1"/>
<path d="M6 16C5.44772 16 5 16.4477 5 17C5 17.5523 5.44772 18 6 18C6.55229 18 7 17.5523 7 17C7 16.4477 6.55229 16 6 16Z" fill="#C1C1C1"/>
<path d="M9 13C9 12.4477 9.44772 12 10 12C10.5523 12 11 12.4477 11 13C11 13.5523 10.5523 14 10 14C9.44772 14 9 13.5523 9 13Z" fill="#C1C1C1"/>
<path d="M10 16C9.44772 16 9 16.4477 9 17C9 17.5523 9.44772 18 10 18C10.5523 18 11 17.5523 11 17C11 16.4477 10.5523 16 10 16Z" fill="#C1C1C1"/>
<path d="M13 13C13 12.4477 13.4477 12 14 12C14.5523 12 15 12.4477 15 13C15 13.5523 14.5523 14 14 14C13.4477 14 13 13.5523 13 13Z" fill="#C1C1C1"/>
<path d="M14 16C13.4477 16 13 16.4477 13 17C13 17.5523 13.4477 18 14 18C14.5523 18 15 17.5523 15 17C15 16.4477 14.5523 16 14 16Z" fill="#C1C1C1"/>
<path fill-rule="evenodd" clip-rule="evenodd" d="M4 1C4 0.447715 4.44772 0 5 0C5.55228 0 6 0.447715 6 1V2H14V1C14 0.447715 14.4477 0 15 0C15.5523 0 16 0.447715 16 1V2H17C18.6569 2 20 3.34315 20 5V19C20 20.6569 18.6569 22 17 22H3C1.34315 22 0 20.6569 0 19V5C0 3.34315 1.34315 2 3 2H4V1ZM14 4V5C14 5.55228 14.4477 6 15 6C15.5523 6 16 5.55228 16 5V4H17C17.5523 4 18 4.44772 18 5V8H2V5C2 4.44772 2.44772 4 3 4H4V5C4 5.55228 4.44772 6 5 6C5.55228 6 6 5.55228 6 5V4H14ZM2 10V19C2 19.5523 2.44772 20 3 20H17C17.5523 20 18 19.5523 18 19V10H2Z" fill="#C1C1C1"/>
</svg>
